<svg width="100" height="100" viewBox="0 0 100 100" fill="none" xmlns="http://www.w3.org/2000/svg">
<g clip-path="url(#clip0_7_2)">
<rect width="99" height="100" rx="30" fill="url(#paint0_linear_7_2)"/>
<path d="M63.91 81C61.45 81 59.62 80.64 58.42 79.92C57.22 79.2 56.35 78.3 55.81 77.22C52.69 70.8 49.75 64.65 46.99 58.77C44.29 52.89 41.53 46.95 38.71 40.95C38.77 47.43 38.86 53.88 38.98 60.3C39.1 66.72 39.22 73.17 39.34 79.65C39.34 80.55 38.86 81 37.9 81H32.95C29.53 81 27.1 80.34 25.66 79.02C24.28 77.64 23.59 75.63 23.59 72.99C23.59 72.27 23.62 71.07 23.68 69.39C23.8 67.65 23.95 65.61 24.13 63.27C24.31 60.93 24.49 58.38 24.67 55.62C24.91 52.8 25.15 49.95 25.39 47.07C25.75 42.51 26.05 38.73 26.29 35.73C26.53 32.73 26.71 30.21 26.83 28.17C27.01 26.07 27.13 24.3 27.19 22.86C27.25 21.36 27.31 19.89 27.37 18.45C27.37 17.55 27.85 17.1 28.81 17.1H36.01C37.99 17.1 39.61 17.34 40.87 17.82C42.13 18.24 43.15 18.84 43.93 19.62C44.77 20.4 45.43 21.3 45.91 22.32C46.39 23.28 46.84 24.3 47.26 25.38C48.7 29.1 49.96 32.31 51.04 35.01C52.18 37.71 53.17 40.08 54.01 42.12C54.85 44.16 55.57 45.93 56.17 47.43C56.83 48.93 57.43 50.31 57.97 51.57C58.51 52.83 59.05 54.06 59.59 55.26C60.13 56.4 60.7 57.66 61.3 59.04C61.3 55.5 61.27 51.87 61.21 48.15C61.21 44.37 61.18 40.71 61.12 37.17C61.12 33.57 61.09 30.12 61.03 26.82C61.03 23.52 61.03 20.55 61.03 17.91C61.03 17.37 61.54 17.1 62.56 17.1H67.51C69.49 17.1 71.05 17.31 72.19 17.73C73.39 18.09 74.32 18.66 74.98 19.44C75.64 20.16 76.06 21.06 76.24 22.14C76.48 23.22 76.6 24.45 76.6 25.83C76.6 27.33 76.51 29.64 76.33 32.76C76.15 35.82 75.94 39.27 75.7 43.11C75.46 46.95 75.19 50.94 74.89 55.08C74.59 59.16 74.29 62.94 73.99 66.42C73.75 69.9 73.51 72.87 73.27 75.33C73.09 77.73 72.97 79.14 72.91 79.56C72.91 80.04 72.73 80.4 72.37 80.64C72.07 80.88 71.71 81 71.29 81H63.91Z" fill="#222725"/>
</g>
<defs>
<linearGradient id="paint0_linear_7_2" x1="0" y1="50" x2="99" y2="50" gradientUnits="userSpaceOnUse">
<stop stop-color="#FFEE93"/>
<stop offset="1" stop-color="#83C5BE"/>
</linearGradient>
<clipPath id="clip0_7_2">
<rect width="100" height="100" fill="white"/>
</clipPath>
</defs>
</svg>
