<svg width="300" height="100" viewBox="0 0 300 100" fill="none" xmlns="http://www.w3.org/2000/svg">
<g clip-path="url(#clip0_1_3)">
<rect x="10" y="5" width="280" height="90" rx="30" fill="#545C52"/>
<path d="M109.92 78C107.733 78 106.107 77.68 105.04 77.04C103.973 76.4 103.2 75.6 102.72 74.64C99.9467 68.9333 97.3333 63.4667 94.88 58.24C92.48 53.0133 90.0267 47.7333 87.52 42.4C87.5733 48.16 87.6533 53.8933 87.76 59.6C87.8667 65.3067 87.9733 71.04 88.08 76.8C88.08 77.6 87.6533 78 86.8 78H82.4C79.36 78 77.2 77.4133 75.92 76.24C74.6933 75.0133 74.08 73.2267 74.08 70.88C74.08 70.24 74.1067 69.1733 74.16 67.68C74.2667 66.1333 74.4 64.32 74.56 62.24C74.72 60.16 74.88 57.8933 75.04 55.44C75.2533 52.9333 75.4667 50.4 75.68 47.84C76 43.7867 76.2667 40.4267 76.48 37.76C76.6933 35.0933 76.8533 32.8533 76.96 31.04C77.12 29.1733 77.2267 27.6 77.28 26.32C77.3333 24.9867 77.3867 23.68 77.44 22.4C77.44 21.6 77.8667 21.2 78.72 21.2H85.12C86.88 21.2 88.32 21.4133 89.44 21.84C90.56 22.2133 91.4667 22.7467 92.16 23.44C92.9067 24.1333 93.4933 24.9333 93.92 25.84C94.3467 26.6933 94.7467 27.6 95.12 28.56C96.4 31.8667 97.52 34.72 98.48 37.12C99.4933 39.52 100.373 41.6267 101.12 43.44C101.867 45.2533 102.507 46.8267 103.04 48.16C103.627 49.4933 104.16 50.72 104.64 51.84C105.12 52.96 105.6 54.0533 106.08 55.12C106.56 56.1333 107.067 57.2533 107.6 58.48C107.6 55.3333 107.573 52.1067 107.52 48.8C107.52 45.44 107.493 42.1867 107.44 39.04C107.44 35.84 107.413 32.7733 107.36 29.84C107.36 26.9067 107.36 24.2667 107.36 21.92C107.36 21.44 107.813 21.2 108.72 21.2H113.12C114.88 21.2 116.267 21.3867 117.28 21.76C118.347 22.08 119.173 22.5867 119.76 23.28C120.347 23.92 120.72 24.72 120.88 25.68C121.093 26.64 121.2 27.7333 121.2 28.96C121.2 30.2933 121.12 32.3467 120.96 35.12C120.8 37.84 120.613 40.9067 120.4 44.32C120.187 47.7333 119.947 51.28 119.68 54.96C119.413 58.5867 119.147 61.9467 118.88 65.04C118.667 68.1333 118.453 70.7733 118.24 72.96C118.08 75.0933 117.973 76.3467 117.92 76.72C117.92 77.1467 117.76 77.4667 117.44 77.68C117.173 77.8933 116.853 78 116.48 78H109.92ZM144.918 78.8C141.771 78.8 139.185 78.5867 137.158 78.16C135.131 77.7867 133.505 77.2267 132.278 76.48C131.105 75.68 130.278 74.6933 129.798 73.52C129.371 72.3467 129.158 70.96 129.158 69.36C129.158 68.88 129.185 68.2133 129.238 67.36C129.291 66.4533 129.371 65.2 129.478 63.6C129.585 62 129.718 59.9467 129.878 57.44C130.091 54.88 130.358 51.68 130.678 47.84C131.051 43.0933 131.345 39.3333 131.558 36.56C131.771 33.7867 131.931 31.6533 132.038 30.16C132.145 28.6133 132.198 27.5467 132.198 26.96C132.251 26.32 132.278 25.7867 132.278 25.36C132.278 24.5067 132.278 23.8133 132.278 23.28C132.331 22.7467 132.385 22.3467 132.438 22.08C132.545 21.76 132.678 21.5467 132.838 21.44C133.051 21.28 133.345 21.2 133.718 21.2C136.865 20.9867 139.531 20.8267 141.718 20.72C143.958 20.6133 145.905 20.56 147.558 20.56C151.611 20.56 155.078 20.9067 157.958 21.6C160.891 22.24 163.265 23.1733 165.078 24.4C166.891 25.6267 168.225 27.1467 169.078 28.96C169.931 30.7733 170.358 32.8267 170.358 35.12C170.358 36.4 170.225 37.7333 169.958 39.12C169.691 40.4533 169.238 41.7333 168.598 42.96C167.958 44.1867 167.078 45.28 165.958 46.24C164.891 47.1467 163.531 47.8133 161.878 48.24C164.971 49.2 167.158 50.8 168.438 53.04C169.718 55.2267 170.358 57.84 170.358 60.88C170.358 63.3333 169.958 65.6533 169.158 67.84C168.358 69.9733 166.971 71.8667 164.998 73.52C163.025 75.12 160.411 76.4 157.158 77.36C153.905 78.32 149.825 78.8 144.918 78.8ZM149.478 54C148.891 54 148.171 54.0533 147.318 54.16C146.465 54.2133 145.585 54.32 144.678 54.48L143.798 67.52C145.718 68.1067 147.451 68.4 148.998 68.4C150.651 68.4 151.985 68.16 152.998 67.68C154.011 67.2 154.785 66.6133 155.318 65.92C155.905 65.1733 156.278 64.3733 156.438 63.52C156.651 62.6133 156.758 61.7867 156.758 61.04C156.758 59.0667 156.198 57.4133 155.078 56.08C154.011 54.6933 152.145 54 149.478 54ZM146.118 32C146.011 33.3867 145.905 35.0133 145.798 36.88C145.745 38.7467 145.638 40.7733 145.478 42.96C147.185 43.3867 148.705 43.6 150.038 43.6C151.638 43.6 152.918 43.4133 153.878 43.04C154.838 42.6667 155.585 42.1867 156.118 41.6C156.705 41.0133 157.078 40.3733 157.238 39.68C157.451 38.9867 157.558 38.32 157.558 37.68C157.558 36.0267 156.998 34.6133 155.878 33.44C154.811 32.2133 152.945 31.6 150.278 31.6C149.691 31.6 149.025 31.6533 148.278 31.76C147.585 31.8133 146.865 31.8933 146.118 32ZM213.436 78C211.249 78 209.622 77.68 208.556 77.04C207.489 76.4 206.716 75.6 206.236 74.64C203.462 68.9333 200.849 63.4667 198.396 58.24C195.996 53.0133 193.542 47.7333 191.036 42.4C191.089 48.16 191.169 53.8933 191.276 59.6C191.382 65.3067 191.489 71.04 191.596 76.8C191.596 77.6 191.169 78 190.316 78H185.916C182.876 78 180.716 77.4133 179.436 76.24C178.209 75.0133 177.596 73.2267 177.596 70.88C177.596 70.24 177.622 69.1733 177.676 67.68C177.782 66.1333 177.916 64.32 178.076 62.24C178.236 60.16 178.396 57.8933 178.556 55.44C178.769 52.9333 178.982 50.4 179.196 47.84C179.516 43.7867 179.782 40.4267 179.996 37.76C180.209 35.0933 180.369 32.8533 180.476 31.04C180.636 29.1733 180.742 27.6 180.796 26.32C180.849 24.9867 180.902 23.68 180.956 22.4C180.956 21.6 181.382 21.2 182.236 21.2H188.636C190.396 21.2 191.836 21.4133 192.956 21.84C194.076 22.2133 194.982 22.7467 195.676 23.44C196.422 24.1333 197.009 24.9333 197.436 25.84C197.862 26.6933 198.262 27.6 198.636 28.56C199.916 31.8667 201.036 34.72 201.996 37.12C203.009 39.52 203.889 41.6267 204.636 43.44C205.382 45.2533 206.022 46.8267 206.556 48.16C207.142 49.4933 207.676 50.72 208.156 51.84C208.636 52.96 209.116 54.0533 209.596 55.12C210.076 56.1333 210.582 57.2533 211.116 58.48C211.116 55.3333 211.089 52.1067 211.036 48.8C211.036 45.44 211.009 42.1867 210.956 39.04C210.956 35.84 210.929 32.7733 210.876 29.84C210.876 26.9067 210.876 24.2667 210.876 21.92C210.876 21.44 211.329 21.2 212.236 21.2H216.636C218.396 21.2 219.782 21.3867 220.796 21.76C221.862 22.08 222.689 22.5867 223.276 23.28C223.862 23.92 224.236 24.72 224.396 25.68C224.609 26.64 224.716 27.7333 224.716 28.96C224.716 30.2933 224.636 32.3467 224.476 35.12C224.316 37.84 224.129 40.9067 223.916 44.32C223.702 47.7333 223.462 51.28 223.196 54.96C222.929 58.5867 222.662 61.9467 222.396 65.04C222.182 68.1333 221.969 70.7733 221.756 72.96C221.596 75.0933 221.489 76.3467 221.436 76.72C221.436 77.1467 221.276 77.4667 220.956 77.68C220.689 77.8933 220.369 78 219.996 78H213.436Z" fill="#E8F0FF"/>
<path d="M256.536 73.112C254.616 73.112 253.016 72.92 251.736 72.536C250.456 72.088 249.464 71.48 248.76 70.712C248.056 69.944 247.544 69.016 247.224 67.928C246.968 66.776 246.84 65.464 246.84 63.992C246.84 63.032 246.872 62.072 246.936 61.112C247 60.152 247.128 58.616 247.32 56.504H234.552C233.848 56.504 233.496 56.152 233.496 55.448C233.496 55.32 233.496 55.192 233.496 55.064C233.496 54.936 233.496 54.744 233.496 54.488C233.496 54.232 233.496 53.88 233.496 53.432C233.56 52.984 233.624 52.344 233.688 51.512C233.752 50.68 233.848 49.88 233.976 49.112C234.168 48.28 234.488 47.544 234.936 46.904C235.448 46.264 236.152 45.752 237.048 45.368C237.944 44.984 239.128 44.792 240.6 44.792H248.28C248.408 42.936 248.568 40.888 248.76 38.648C248.952 36.408 249.144 33.848 249.336 30.968C249.4 29.56 249.528 28.76 249.72 28.568C249.976 28.312 250.584 28.184 251.544 28.184C253.528 28.184 255.128 28.376 256.344 28.76C257.624 29.144 258.616 29.72 259.32 30.488C260.088 31.256 260.6 32.184 260.856 33.272C261.176 34.36 261.336 35.576 261.336 36.92C261.336 37.816 261.304 38.808 261.24 39.896C261.176 40.984 261.048 42.616 260.856 44.792H273.432C273.816 44.792 274.168 44.92 274.488 45.176C274.808 45.368 274.968 45.688 274.968 46.136L274.68 50.072C274.552 51.992 274.008 53.56 273.048 54.776C272.152 55.928 270.264 56.504 267.384 56.504H259.8L258.648 71.192C258.584 71.96 258.424 72.472 258.168 72.728C257.912 72.984 257.368 73.112 256.536 73.112Z" fill="#E8F0FF"/>
<path d="M38.168 49.88C39.768 50.712 40.952 51.32 41.72 51.704C42.488 52.088 43.096 52.408 43.544 52.664C44.056 52.92 44.504 53.144 44.888 53.336C45.336 53.528 45.976 53.848 46.808 54.296C47.704 54.744 48.952 55.384 50.552 56.216C52.216 56.984 54.52 58.072 57.464 59.48C58.104 59.864 58.424 60.504 58.424 61.4C58.424 61.976 58.36 62.84 58.232 63.992C58.104 65.144 57.848 66.328 57.464 67.544C57.144 68.696 56.696 69.72 56.12 70.616C55.544 71.448 54.776 71.864 53.816 71.864C52.984 71.864 51.8 71.544 50.264 70.904C48.728 70.264 47 69.432 45.08 68.408C43.224 67.32 41.304 66.168 39.32 64.952C37.336 63.672 35.448 62.424 33.656 61.208C31.928 59.992 30.392 58.904 29.048 57.944C27.768 56.92 26.904 56.12 26.456 55.544C26.072 55.032 25.848 54.616 25.784 54.296C25.72 53.912 25.688 53.528 25.688 53.144L26.072 47.288C26.136 46.392 26.296 45.72 26.552 45.272C26.872 44.824 27.352 44.344 27.992 43.832C28.696 43.32 29.88 42.584 31.544 41.624C33.208 40.6 35.096 39.512 37.208 38.36C39.32 37.144 41.56 35.928 43.928 34.712C46.296 33.432 48.536 32.312 50.648 31.352C52.824 30.328 54.744 29.496 56.408 28.856C58.072 28.216 59.256 27.896 59.96 27.896C60.728 27.896 61.112 28.312 61.112 29.144C61.112 31.512 61.016 33.432 60.824 34.904C60.632 36.376 60.312 37.592 59.864 38.552C59.416 39.448 58.872 40.184 58.232 40.76C57.592 41.272 56.824 41.784 55.928 42.296C54.968 42.808 53.944 43.32 52.856 43.832C51.832 44.344 50.616 44.888 49.208 45.464C47.864 46.04 46.264 46.68 44.408 47.384C42.616 48.088 40.536 48.92 38.168 49.88Z" fill="#E8F0FF"/>
</g>
<defs>
<clipPath id="clip0_1_3">
<rect width="300" height="100" fill="white"/>
</clipPath>
</defs>
</svg>
