<svg fill="none" height="100" viewBox="0 0 300 100" width="300" xmlns="http://www.w3.org/2000/svg" xmlns:xlink="http://www.w3.org/1999/xlink"><linearGradient id="a" gradientUnits="userSpaceOnUse" x1="10" x2="290" y1="50" y2="50"><stop offset="0" stop-color="#ffee93"/><stop offset="1" stop-color="#83c5be"/></linearGradient><clipPath id="b"><path d="m0 0h300v100h-300z"/></clipPath><g clip-path="url(#b)"><rect fill="url(#a)" height="90" rx="30" width="280" x="10" y="5"/><g fill="#222725"><path d="m109.92 78c-2.187 0-3.813-.32-4.88-.96s-1.84-1.44-2.32-2.4c-2.7733-5.7067-5.3867-11.1733-7.84-16.4-2.4-5.2267-4.8533-10.5067-7.36-15.84.0533 5.76.1333 11.4933.24 17.2s.2133 11.44.32 17.2c0 .8-.4267 1.2-1.28 1.2h-4.4c-3.04 0-5.2-.5867-6.48-1.76-1.2267-1.2267-1.84-3.0133-1.84-5.36 0-.64.0267-1.7067.08-3.2.1067-1.5467.24-3.36.4-5.44s.32-4.3467.48-6.8c.2133-2.5067.4267-5.04.64-7.6.32-4.0533.5867-7.4133.8-10.08s.3733-4.9067.48-6.72c.16-1.8667.2667-3.44.32-4.72.0533-1.3333.1067-2.64.16-3.92 0-.8.4267-1.2 1.28-1.2h6.4c1.76 0 3.2.2133 4.32.64 1.12.3733 2.0267.9067 2.72 1.6.7467.6933 1.3333 1.4933 1.76 2.4.4267.8533.8267 1.76 1.2 2.72 1.28 3.3067 2.4 6.16 3.36 8.56 1.0133 2.4 1.893 4.5067 2.64 6.32s1.387 3.3867 1.92 4.72c.587 1.3333 1.12 2.56 1.6 3.68s.96 2.2133 1.44 3.28c.48 1.0133.987 2.1333 1.52 3.36 0-3.1467-.027-6.3733-.08-9.68 0-3.36-.027-6.6133-.08-9.76 0-3.2-.027-6.2667-.08-9.2 0-2.9333 0-5.5733 0-7.92 0-.48.453-.72 1.36-.72h4.4c1.76 0 3.147.1867 4.16.56 1.067.32 1.893.8267 2.48 1.52.587.64.96 1.44 1.12 2.4.213.96.32 2.0533.32 3.28 0 1.3333-.08 3.3867-.24 6.16-.16 2.72-.347 5.7867-.56 9.2s-.453 6.96-.72 10.64c-.267 3.6267-.533 6.9867-.8 10.08-.213 3.0933-.427 5.7333-.64 7.92-.16 2.1333-.267 3.3867-.32 3.76 0 .4267-.16.7467-.48.96-.267.2133-.587.32-.96.32zm34.998.8c-3.147 0-5.733-.2133-7.76-.64-2.027-.3733-3.653-.9333-4.88-1.68-1.173-.8-2-1.7867-2.48-2.96-.427-1.1733-.64-2.56-.64-4.16 0-.48.027-1.1467.08-2 .053-.9067.133-2.16.24-3.76s.24-3.6533.4-6.16c.213-2.56.48-5.76.8-9.6.373-4.7467.667-8.5067.88-11.28s.373-4.9067.48-6.4c.107-1.5467.16-2.6133.16-3.2.053-.64.08-1.1733.08-1.6 0-.8533 0-1.5467 0-2.08.053-.5333.107-.9333.16-1.2.107-.32.24-.5333.4-.64.213-.16.507-.24.88-.24 3.147-.2133 5.813-.3733 8-.48 2.24-.1067 4.187-.16 5.84-.16 4.053 0 7.52.3467 10.4 1.04 2.933.64 5.307 1.5733 7.12 2.8s3.147 2.7467 4 4.56 1.28 3.8667 1.28 6.16c0 1.28-.133 2.6133-.4 4-.267 1.3333-.72 2.6133-1.36 3.84s-1.52 2.32-2.64 3.28c-1.067.9067-2.427 1.5733-4.08 2 3.093.96 5.28 2.56 6.56 4.8 1.28 2.1867 1.92 4.8 1.92 7.84 0 2.4533-.4 4.7733-1.2 6.96-.8 2.1333-2.187 4.0267-4.16 5.68-1.973 1.6-4.587 2.88-7.84 3.84s-7.333 1.44-12.24 1.44zm4.56-24.8c-.587 0-1.307.0533-2.16.16-.853.0533-1.733.16-2.64.32l-.88 13.04c1.92.5867 3.653.88 5.2.88 1.653 0 2.987-.24 4-.72s1.787-1.0667 2.32-1.76c.587-.7467.96-1.5467 1.12-2.4.213-.9067.32-1.7333.32-2.48 0-1.9733-.56-3.6267-1.68-4.96-1.067-1.3867-2.933-2.08-5.6-2.08zm-3.36-22c-.107 1.3867-.213 3.0133-.32 4.88-.053 1.8667-.16 3.8933-.32 6.08 1.707.4267 3.227.64 4.56.64 1.6 0 2.88-.1867 3.84-.56s1.707-.8533 2.24-1.44c.587-.5867.96-1.2267 1.12-1.92.213-.6933.32-1.36.32-2 0-1.6533-.56-3.0667-1.68-4.24-1.067-1.2267-2.933-1.84-5.6-1.84-.587 0-1.253.0533-2 .16-.693.0533-1.413.1333-2.16.24zm67.318 46c-2.187 0-3.814-.32-4.88-.96-1.067-.64-1.84-1.44-2.32-2.4-2.774-5.7067-5.387-11.1733-7.84-16.4-2.4-5.2267-4.854-10.5067-7.36-15.84.053 5.76.133 11.4933.24 17.2.106 5.7067.213 11.44.32 17.2 0 .8-.427 1.2-1.28 1.2h-4.4c-3.04 0-5.2-.5867-6.48-1.76-1.227-1.2267-1.84-3.0133-1.84-5.36 0-.64.026-1.7067.08-3.2.106-1.5467.24-3.36.4-5.44s.32-4.3467.48-6.8c.213-2.5067.426-5.04.64-7.6.32-4.0533.586-7.4133.8-10.08.213-2.6667.373-4.9067.48-6.72.16-1.8667.266-3.44.32-4.72.053-1.3333.106-2.64.16-3.92 0-.8.426-1.2 1.28-1.2h6.4c1.76 0 3.2.2133 4.32.64 1.12.3733 2.026.9067 2.72 1.6.746.6933 1.333 1.4933 1.76 2.4.426.8533.826 1.76 1.2 2.72 1.28 3.3067 2.4 6.16 3.36 8.56 1.013 2.4 1.893 4.5067 2.64 6.32.746 1.8133 1.386 3.3867 1.92 4.72.586 1.3333 1.12 2.56 1.6 3.68s.96 2.2133 1.44 3.28c.48 1.0133.986 2.1333 1.52 3.36 0-3.1467-.027-6.3733-.08-9.68 0-3.36-.027-6.6133-.08-9.76 0-3.2-.027-6.2667-.08-9.2 0-2.9333 0-5.5733 0-7.92 0-.48.453-.72 1.36-.72h4.4c1.76 0 3.146.1867 4.16.56 1.066.32 1.893.8267 2.48 1.52.586.64.96 1.44 1.12 2.4.213.96.32 2.0533.32 3.28 0 1.3333-.08 3.3867-.24 6.16-.16 2.72-.347 5.7867-.56 9.2-.214 3.4133-.454 6.96-.72 10.64-.267 3.6267-.534 6.9867-.8 10.08-.214 3.0933-.427 5.7333-.64 7.92-.16 2.1333-.267 3.3867-.32 3.76 0 .4267-.16.7467-.48.96-.267.2133-.587.32-.96.32z"/><path d="m256.536 73.112c-1.92 0-3.52-.192-4.8-.576-1.28-.448-2.272-1.056-2.976-1.824s-1.216-1.696-1.536-2.784c-.256-1.152-.384-2.464-.384-3.936 0-.96.032-1.92.096-2.88s.192-2.496.384-4.608h-12.768c-.704 0-1.056-.352-1.056-1.056 0-.128 0-.256 0-.384s0-.32 0-.576 0-.608 0-1.056c.064-.448.128-1.088.192-1.92s.16-1.632.288-2.4c.192-.832.512-1.568.96-2.208.512-.64 1.216-1.152 2.112-1.536s2.08-.576 3.552-.576h7.68c.128-1.856.288-3.904.48-6.144s.384-4.8.576-7.68c.064-1.408.192-2.208.384-2.4.256-.256.864-.384 1.824-.384 1.984 0 3.584.192 4.8.576 1.28.384 2.272.96 2.976 1.728.768.768 1.28 1.696 1.536 2.784.32 1.088.48 2.304.48 3.648 0 .896-.032 1.888-.096 2.976s-.192 2.72-.384 4.896h12.576c.384 0 .736.128 1.056.384.32.192.48.512.48.96l-.288 3.936c-.128 1.92-.672 3.488-1.632 4.704-.896 1.152-2.784 1.728-5.664 1.728h-7.584l-1.152 14.688c-.064.768-.224 1.28-.48 1.536s-.8.384-1.632.384z"/><path d="m38.168 49.88c1.6.832 2.784 1.44 3.552 1.824s1.376.704 1.824.96c.512.256.96.48 1.344.672.448.192 1.088.512 1.92.96.896.448 2.144 1.088 3.744 1.92 1.664.768 3.968 1.856 6.912 3.264.64.384.96 1.024.96 1.92 0 .576-.064 1.44-.192 2.592s-.384 2.336-.768 3.552c-.32 1.152-.768 2.176-1.344 3.072-.576.832-1.344 1.248-2.304 1.248-.832 0-2.016-.32-3.552-.96s-3.264-1.472-5.184-2.496c-1.856-1.088-3.776-2.24-5.76-3.456-1.984-1.28-3.872-2.528-5.664-3.744-1.728-1.216-3.264-2.304-4.608-3.264-1.28-1.024-2.144-1.824-2.592-2.4-.384-.512-.608-.928-.672-1.248-.064-.384-.096-.768-.096-1.152l.384-5.856c.064-.896.224-1.568.48-2.016.32-.448.8-.928 1.44-1.44.704-.512 1.888-1.248 3.552-2.208 1.664-1.024 3.552-2.112 5.664-3.264 2.112-1.216 4.352-2.432 6.72-3.648 2.368-1.28 4.608-2.4 6.72-3.36 2.176-1.024 4.096-1.856 5.76-2.496s2.848-.96 3.552-.96c.768 0 1.152.416 1.152 1.248 0 2.368-.096 4.288-.288 5.76s-.512 2.688-.96 3.648c-.448.896-.992 1.632-1.632 2.208-.64.512-1.408 1.024-2.304 1.536-.96.512-1.984 1.024-3.072 1.536-1.024.512-2.24 1.056-3.648 1.632-1.344.576-2.944 1.216-4.8 1.92-1.792.704-3.872 1.536-6.24 2.496z"/></g></g></svg>